HIERARCHY
ROOT Hips
{
  OFFSET 5.84602e-005 68.8428 3.50346
  CHANNELS 6 Xposition Yposition Zposition Zrotation Xrotation Yrotation
  JOINT Spine
  {
    OFFSET 0 8.597 -4.6522
    CHANNELS 3 Zrotation Xrotation Yrotation
    JOINT Spine1
    {
      OFFSET 0 7.8454 0.4098
      CHANNELS 3 Zrotation Xrotation Yrotation
      JOINT Spine2
      {
        OFFSET 0 9.7078 -2.1609
        CHANNELS 3 Zrotation Xrotation Yrotation
        JOINT Neck
        {
          OFFSET 0 21.8761 -0.4549
          CHANNELS 3 Zrotation Xrotation Yrotation
          JOINT Head
          {
            OFFSET 0 12.3537 3.3602
            CHANNELS 3 Zrotation Xrotation Yrotation
            End Site
            {
              OFFSET 0.0001 18.9506 0.5657
            }
          }
        }
        JOINT LeftShoulder
        {
          OFFSET 2.2086 21.1115 7.2329
          CHANNELS 3 Zrotation Xrotation Yrotation
          JOINT LeftArm
          {
            OFFSET 13.1193 3.0282 -4.8998
            CHANNELS 3 Zrotation Xrotation Yrotation
            JOINT LeftForeArm
            {
              OFFSET 27.4081 -0.0973053 -0.2375
              CHANNELS 3 Zrotation Xrotation Yrotation
              JOINT LeftHand
              {
                OFFSET 22.8641 0.0662994 -0.1369
                CHANNELS 3 Zrotation Xrotation Yrotation
                JOINT LeftHandIndex1
                {
                  OFFSET 8.8614 0.775009 2.4612
                  CHANNELS 3 Zrotation Xrotation Yrotation
                  JOINT LeftHandIndex2
                  {
                    OFFSET 3.3146 -0.808304 0.5841
                    CHANNELS 3 Zrotation Xrotation Yrotation
                    JOINT LeftHandIndex3
                    {
                      OFFSET 2.2628 -0.552002 0.3989
                      CHANNELS 3 Zrotation Xrotation Yrotation
                      End Site
                      {
                        OFFSET 1.6102 -0.4807 0.2612
                      }
                    }
                  }
                }
                JOINT LeftHandMiddle1
                {
                  OFFSET 8.9937 0.895004 0.2143
                  CHANNELS 3 Zrotation Xrotation Yrotation
                  JOINT LeftHandMiddle2
                  {
                    OFFSET 4.0984 0.0113983 -0.0242
                    CHANNELS 3 Zrotation Xrotation Yrotation
                    JOINT LeftHandMiddle3
                    {
                      OFFSET 2.2716 0.00689697 -0.0138001
                      CHANNELS 3 Zrotation Xrotation Yrotation
                      End Site
                      {
                        OFFSET 2.0404 -0.1441 0.0027
                      }
                    }
                  }
                }
                JOINT LeftHandRing1
                {
                  OFFSET 8.5234 0.597198 -2.0164
                  CHANNELS 3 Zrotation Xrotation Yrotation
                  JOINT LeftHandRing2
                  {
                    OFFSET 3.7188 -0.188293 -0.2328
                    CHANNELS 3 Zrotation Xrotation Yrotation
                    JOINT LeftHandRing3
                    {
                      OFFSET 2.1191 -0.106598 -0.1332
                      CHANNELS 3 Zrotation Xrotation Yrotation
                      End Site
                      {
                        OFFSET 1.8737 -0.2304 -0.0886
                      }
                    }
                  }
                }
                JOINT LeftHandPinky1
                {
                  OFFSET 7.9094 -0.601089 -3.4825
                  CHANNELS 3 Zrotation Xrotation Yrotation
                  JOINT LeftHandPinky2
                  {
                    OFFSET 2.2874 -0.477005 -0.6314
                    CHANNELS 3 Zrotation Xrotation Yrotation
                    JOINT LeftHandPinky3
                    {
                      OFFSET 1.6774 -0.349396 -0.4633
                      CHANNELS 3 Zrotation Xrotation Yrotation
                      End Site
                      {
                        OFFSET 1.4888 -0.4091 -0.3416
                      }
                    }
                  }
                }
                JOINT LeftHandThumb1
                {
                  OFFSET 1.833 -1.3875 1.3896
                  CHANNELS 3 Zrotation Xrotation Yrotation
                  JOINT LeftHandThumb2
                  {
                    OFFSET 3.4129 -1.121 2.5732
                    CHANNELS 3 Zrotation Xrotation Yrotation
                    JOINT LeftHandThumb3
                    {
                      OFFSET 2.2474 -0.804199 1.6192
                      CHANNELS 3 Zrotation Xrotation Yrotation
                      End Site
                      {
                        OFFSET 1.6527 -0.5689 1.1317
                      }
                    }
                  }
                }
              }
            }
          }
        }
        JOINT RightShoulder
        {
          OFFSET -2.2086 21.1115 7.2329
          CHANNELS 3 Zrotation Xrotation Yrotation
          JOINT RightArm
          {
            OFFSET -13.1216 3.0287 -4.9007
            CHANNELS 3 Zrotation Xrotation Yrotation
            JOINT RightForeArm
            {
              OFFSET -27.4081 -0.0973053 -0.2375
              CHANNELS 3 Zrotation Xrotation Yrotation
              JOINT RightHand
              {
                OFFSET -22.8641 0.0664063 -0.1369
                CHANNELS 3 Zrotation Xrotation Yrotation
                JOINT RightHandIndex1
                {
                  OFFSET -8.8614 0.774994 2.4612
                  CHANNELS 3 Zrotation Xrotation Yrotation
                  JOINT RightHandIndex2
                  {
                    OFFSET -3.3146 -0.808304 0.5841
                    CHANNELS 3 Zrotation Xrotation Yrotation
                    JOINT RightHandIndex3
                    {
                      OFFSET -2.2628 -0.552002 0.3989
                      CHANNELS 3 Zrotation Xrotation Yrotation
                      End Site
                      {
                        OFFSET -1.6102 -0.4807 0.2612
                      }
                    }
                  }
                }
                JOINT RightHandMiddle1
                {
                  OFFSET -8.9937 0.894989 0.2143
                  CHANNELS 3 Zrotation Xrotation Yrotation
                  JOINT RightHandMiddle2
                  {
                    OFFSET -4.0984 0.0113983 -0.0242
                    CHANNELS 3 Zrotation Xrotation Yrotation
                    JOINT RightHandMiddle3
                    {
                      OFFSET -2.2716 0.00691223 -0.0138001
                      CHANNELS 3 Zrotation Xrotation Yrotation
                      End Site
                      {
                        OFFSET -2.0404 -0.1441 0.0027
                      }
                    }
                  }
                }
                JOINT RightHandRing1
                {
                  OFFSET -8.5234 0.597198 -2.0164
                  CHANNELS 3 Zrotation Xrotation Yrotation
                  JOINT RightHandRing2
                  {
                    OFFSET -3.7188 -0.188309 -0.2328
                    CHANNELS 3 Zrotation Xrotation Yrotation
                    JOINT RightHandRing3
                    {
                      OFFSET -2.1191 -0.106598 -0.1332
                      CHANNELS 3 Zrotation Xrotation Yrotation
                      End Site
                      {
                        OFFSET -1.8737 -0.2304 -0.0886
                      }
                    }
                  }
                }
                JOINT RightHandPinky1
                {
                  OFFSET -7.9094 -0.601105 -3.4825
                  CHANNELS 3 Zrotation Xrotation Yrotation
                  JOINT RightHandPinky2
                  {
                    OFFSET -2.2874 -0.477005 -0.6314
                    CHANNELS 3 Zrotation Xrotation Yrotation
                    JOINT RightHandPinky3
                    {
                      OFFSET -1.6774 -0.349396 -0.4633
                      CHANNELS 3 Zrotation Xrotation Yrotation
                      End Site
                      {
                        OFFSET -1.4888 -0.4091 -0.3416
                      }
                    }
                  }
                }
                JOINT RightHandThumb1
                {
                  OFFSET -1.833 -1.38751 1.3896
                  CHANNELS 3 Zrotation Xrotation Yrotation
                  JOINT RightHandThumb2
                  {
                    OFFSET -3.41299 -1.12099 2.5732
                    CHANNELS 3 Zrotation Xrotation Yrotation
                    JOINT RightHandThumb3
                    {
                      OFFSET -2.24741 -0.804108 1.6192
                      CHANNELS 3 Zrotation Xrotation Yrotation
                      End Site
                      {
                        OFFSET -1.6527 -0.5689 1.1317
                      }
                    }
                  }
                }
              }
            }
          }
        }
      }
    }
  }
  JOINT RightUpLeg
  {
    OFFSET -9.1966 3.8861 -0.7581
    CHANNELS 3 Zrotation Xrotation Yrotation
    JOINT RightLeg
    {
      OFFSET -0.7359 -41.0265 0
      CHANNELS 3 Zrotation Xrotation Yrotation
      JOINT RightFoot
      {
        OFFSET 0 -40.2855 0
        CHANNELS 3 Zrotation Xrotation Yrotation
        JOINT RightToeBase
        {
          OFFSET 0 -5.6122 11.7359
          CHANNELS 3 Zrotation Xrotation Yrotation
          End Site
          {
            OFFSET 0 0 7.8731
          }
        }
      }
    }
  }
  JOINT LeftUpLeg
  {
    OFFSET 9.1965 3.8864 -0.7581
    CHANNELS 3 Zrotation Xrotation Yrotation
    JOINT LeftLeg
    {
      OFFSET 0.7359 -41.0268 0
      CHANNELS 3 Zrotation Xrotation Yrotation
      JOINT LeftFoot
      {
        OFFSET 0 -40.2855 0
        CHANNELS 3 Zrotation Xrotation Yrotation
        JOINT LeftToeBase
        {
          OFFSET 0 -5.6122 11.7359
          CHANNELS 3 Zrotation Xrotation Yrotation
          End Site
          {
            OFFSET 0 0 7.8731
          }
        }
      }
    }
  }
}
MOTION
Frames:	4
Frame Time:	0.0333333
-2.64964 32.4986 -23.974 -0 -20.5271 -0 0.145282 19.2101 -0.137831 0.378273 38.4197 -0.364969 0.378273 38.4197 -0.364969 -1.59669 10.4344 -12.8979 5.71462 -37.4417 3.47249 23.6681 -10.3269 -25.3666 -40.599 -51.5146 -16.3649 36.8965 -27.1021 -115.224 0.0220533 -38.6966 -7.58184 5.29669e-031 9.54166e-015 -3.18055e-015 -1.59028e-015 3.18055e-015 -6.36111e-015 -1.55595e-006 4.50062e-007 4.18164e-007 5.29669e-031 9.54166e-015 -3.18055e-015 -0.0145734 -8.77644e-005 -3.03131e-006 -1.55599e-006 4.50008e-007 4.18223e-007 5.29669e-031 9.54166e-015 -3.18055e-015 -0.0187652 -0.00117652 5.46818e-005 -1.556e-006 4.4999e-007 4.18254e-007 5.29669e-031 9.54166e-015 -3.18055e-015 -0.0122971 -0.0032565 0.000674814 -3.09348e-007 -1.88701e-008 6.39943e-007 5.29669e-031 9.54166e-015 -3.18055e-015 -1.59028e-015 3.18055e-015 -6.36111e-015 -1.55595e-006 4.50062e-007 4.18164e-007 -24.5064 -10.1392 24.9839 43.321 -50.1742 18.2569 -37.077 -26.7215 113.97 3.365 -2.15089 -35.8911 8.80692e-008 -5.47196e-007 9.62346e-006 -3.97569e-016 1.44119e-015 -0 -2.54028e-007 -3.58594e-007 -8.80832e-010 8.80692e-008 -5.47196e-007 9.62346e-006 0.0149523 -9.05632e-005 -2.18579e-006 -2.5403e-007 -3.58594e-007 -8.33854e-010 8.80692e-008 -5.47196e-007 9.62346e-006 0.0190106 -0.00119231 -6.07512e-005 -2.54031e-007 -3.58594e-007 -8.18699e-010 8.80692e-008 -5.47196e-007 9.62346e-006 0.0122088 -0.00323175 -0.000670519 -2.54028e-007 -3.58595e-007 -8.3535e-010 8.80692e-008 -5.47196e-007 9.62346e-006 -3.97569e-016 1.44119e-015 -0 -2.54028e-007 -3.58594e-007 -8.80832e-010 -13.5055 6.87586 -8.11204 -150.97 79.4994 154.474 -19.7161 52.3352 -1.58909 -9.0664e-007 1.50829e-006 -1.20615e-006 12.6442 7.55113 8.38776 151.295 79.684 -154.739 20.0693 54.0142 2.03551 3.26222e-007 3.18601e-006 -1.59811e-006 
-2.64966 32.4374 -23.841 -0 -19.9353 -0 0.145273 18.9538 -0.135751 0.375295 37.907 -0.358279 0.375294 37.907 -0.358279 -1.62339 10.3163 -12.9788 5.60007 -35.8829 3.28019 23.0668 -9.41314 -26.1099 -40.5751 -51.5243 -16.3505 36.8949 -27.1051 -115.235 -0.335229 -38.1674 -8.19758 3.09854e-007 1.71966e-008 -6.36897e-007 -5.72946e-007 -3.50968e-007 -1.23767e-006 -3.18055e-015 3.18055e-015 -1.59028e-014 3.09854e-007 1.71966e-008 -6.36897e-007 -0.0146251 -8.81931e-005 2.78387e-006 2.38542e-014 -1.59028e-014 -9.54166e-015 3.09854e-007 1.71966e-008 -6.36897e-007 -0.0187305 -0.00117739 5.28178e-005 -4.77083e-015 -2.54444e-014 -1.59028e-014 3.09854e-007 1.71966e-008 -6.36897e-007 -0.0122634 -0.00324906 0.000672716 -3.11427e-007 -1.76846e-008 6.36991e-007 3.09854e-007 1.71966e-008 -6.36897e-007 -5.72946e-007 -3.50968e-007 -1.23767e-006 -3.18055e-015 3.18055e-015 -1.59028e-014 -23.8184 -9.19832 25.6777 43.321 -50.1742 18.2569 -37.0754 -26.7246 113.98 3.35675 -1.5958 -35.3735 -4.77083e-015 -2.55935e-014 1.59028e-015 -6.94439e-008 8.08564e-008 5.30024e-009 -6.94439e-008 8.08565e-008 5.30025e-009 -4.77083e-015 -2.55935e-014 1.59028e-015 0.0149692 -9.15048e-005 5.37395e-006 -6.94438e-008 8.08571e-008 5.28974e-009 -4.77083e-015 -2.55935e-014 1.59028e-015 0.0189835 -0.00118997 -6.00529e-005 -6.94437e-008 8.08573e-008 5.28755e-009 -4.77083e-015 -2.55935e-014 1.59028e-015 0.0122777 -0.00324986 -0.000676286 -6.94441e-008 8.08566e-008 5.29355e-009 -4.77083e-015 -2.55935e-014 1.59028e-015 -6.94439e-008 8.08564e-008 5.30024e-009 -6.94439e-008 8.08565e-008 5.30025e-009 -13.4589 6.53487 -8.18661 -150.96 79.5027 154.464 -19.7167 52.3364 -1.5883 -1.96131e-007 -1.28942e-008 -1.72923e-006 12.5845 7.21039 8.44342 151.283 79.6879 -154.727 20.0593 54.0094 2.04219 -3.97893e-007 6.19462e-008 1.40735e-007 
-2.64968 32.3827 -23.7219 -0 -19.4024 -0 0.14526 18.7229 -0.133881 0.372669 37.4453 -0.352318 0.372669 37.4453 -0.352318 -1.65023 10.1981 -13.0597 5.50364 -34.4749 3.11275 22.5355 -8.58127 -26.7693 -40.5511 -51.5339 -16.336 36.8933 -27.1081 -115.246 -0.648975 -37.6881 -8.74476 -8.35835e-007 -6.84454e-007 -3.11256e-006 1.10691e-006 -2.00565e-006 -7.56904e-008 -2.39212e-006 -2.35084e-007 -2.69464e-006 -8.35835e-007 -6.84454e-007 -3.11256e-006 -0.0145818 -8.51432e-005 -8.18573e-007 -1.14968e-006 -7.00642e-007 -2.47887e-006 -8.35835e-007 -6.84454e-007 -3.11256e-006 -0.0187261 -0.00117455 5.92652e-005 -1.15028e-006 -7.00701e-007 -2.47887e-006 -8.35835e-007 -6.84454e-007 -3.11256e-006 -0.0122097 -0.00323282 0.000673581 -2.39233e-006 -2.34817e-007 -2.69459e-006 -8.35835e-007 -6.84454e-007 -3.11256e-006 1.10691e-006 -2.00565e-006 -7.56904e-008 -2.39212e-006 -2.35084e-007 -2.69464e-006 -23.2085 -8.3414 26.291 43.321 -50.1742 18.2569 -37.0739 -26.7276 113.991 3.34543 -1.09651 -34.9069 6.94519e-008 -8.08507e-008 -5.28369e-009 -6.94519e-008 8.08507e-008 5.2837e-009 1.38904e-007 -1.61702e-007 -1.05674e-008 6.94519e-008 -8.08507e-008 -5.28369e-009 0.0150096 -9.14581e-005 6.6151e-006 1.38903e-007 -1.61703e-007 -1.05463e-008 6.94519e-008 -8.08507e-008 -5.28369e-009 0.0189974 -0.00119094 -6.30387e-005 1.38903e-007 -1.61703e-007 -1.0542e-008 6.94519e-008 -8.08507e-008 -5.28369e-009 0.0122509 -0.00324322 -0.000677453 1.38904e-007 -1.61702e-007 -1.0554e-008 6.94519e-008 -8.08507e-008 -5.28369e-009 -6.94519e-008 8.08507e-008 5.2837e-009 1.38904e-007 -1.61702e-007 -1.05674e-008 -13.4173 6.22772 -8.25346 -150.951 79.5056 154.455 -19.7172 52.3377 -1.58757 -3.2127e-007 2.24198e-006 1.17974e-005 12.5311 6.90376 8.49318 151.271 79.6915 -154.717 20.0492 54.0046 2.04895 -1.61939e-007 2.57378e-009 -1.73259e-006 
-2.64969 32.3285 -23.6032 -0 -18.8694 -0 0.145243 18.4919 -0.132015 0.370097 36.9834 -0.346416 0.370097 36.9834 -0.346416 -1.6772 10.0802 -13.1406 5.41347 -33.0632 2.95045 22.0141 -7.74204 -27.4206 -40.5271 -51.5436 -16.3216 36.8916 -27.1112 -115.256 -0.955101 -37.2063 -9.28537 1.87014e-006 -4.32629e-007 -1.04804e-006 -2.13114e-006 9.86642e-008 -8.23494e-007 1.55644e-006 -4.4895e-007 -4.17857e-007 1.87014e-006 -4.32629e-007 -1.04804e-006 -0.0146327 -9.00968e-005 -1.11882e-007 1.87208e-006 -4.32483e-007 -1.04809e-006 1.87014e-006 -4.32629e-007 -1.04804e-006 -0.0187909 -0.00117559 5.94212e-005 1.55649e-006 -4.48879e-007 -4.17946e-007 1.87014e-006 -4.32629e-007 -1.04804e-006 -0.0122991 -0.003253 0.000680577 1.55646e-006 -4.48904e-007 -4.17951e-007 1.87014e-006 -4.32629e-007 -1.04804e-006 -2.13114e-006 9.86642e-008 -8.23494e-007 1.55644e-006 -4.4895e-007 -4.17857e-007 -22.6081 -7.47663 26.8948 43.321 -50.1742 18.2569 -37.0723 -26.7307 114.001 3.33004 -0.597029 -34.4401 3.97569e-016 -6.4605e-016 -0 3.97569e-016 1.98785e-016 -1.59028e-015 3.97569e-016 1.09332e-015 -0 3.97569e-016 -6.4605e-016 -0 0.015008 -9.1769e-005 7.37293e-006 -3.97569e-016 -2.93207e-015 -1.59028e-015 3.97569e-016 -6.4605e-016 -0 0.0190543 -0.00119469 -5.83343e-005 -2.78299e-015 -2.56432e-014 -0 3.97569e-016 -6.4605e-016 -0 0.0122927 -0.00325487 -0.000678029 3.97569e-016 4.02539e-015 -0 3.97569e-016 -6.4605e-016 -0 3.97569e-016 1.98785e-016 -1.59028e-015 3.97569e-016 1.09332e-015 -0 -13.3761 5.92046 -8.32004 -150.942 79.5086 154.446 -19.7177 52.3389 -1.58685 -3.95886e-007 -6.12081e-008 1.46408e-007 12.4781 6.59702 8.54261 151.26 79.6951 -154.706 20.0392 53.9998 2.05567 3.9839e-007 -6.21274e-008 -1.39304e-007 
